<svg height="496pt" viewBox="-25 0 496 496.00001" width="496pt" xmlns="http://www.w3.org/2000/svg"><path d="m438.132812 41.332031h-330.664062c-4.566406 0-8.269531-3.699219-8.269531-8.265625s3.703125-8.265625 8.269531-8.265625h330.664062c4.566407 0 8.269532 3.699219 8.269532 8.265625s-3.703125 8.265625-8.269532 8.265625zm0 0" fill="#5a6470"/><path d="m330.667969 289.332031c57.867187-8.265625 82.667969-41.332031 82.667969-99.199219h-396.800782c0 57.867188 24.800782 90.933594 82.664063 99.199219zm0 0" fill="#e9686a"/><path d="m328.203125 264.53125h-30.601563c-4.566406 0-8.269531-3.699219-8.269531-8.265625s3.703125-8.265625 8.269531-8.265625h29.945313c23.378906-3.785156 35.140625-11.777344 40.527344-27.480469 1.472656-4.320312 6.167969-6.628906 10.488281-5.15625 4.320312 1.476563 6.628906 6.171875 5.15625 10.492188-.003906.007812-.003906.015625-.007812.027343-7.523438 21.941407-24.246094 33.832032-54.21875 38.554688-.425782.0625-.855469.09375-1.289063.09375zm0 0" fill="#fff"/><path d="m124 487.734375h-33.066406l41.332031-198.402344h33.066406zm0 0" fill="#aabece"/><path d="m0 157.066406h429.867188v33.066406h-429.867188zm0 0" fill="#fdbd40"/><path d="m165.332031 289.332031h99.199219v49.601563c0 18.261718-14.800781 33.066406-33.066406 33.066406h-33.066406c-18.261719 0-33.066407-14.804688-33.066407-33.066406zm0 0" fill="#fdbd40"/><path d="m318.304688 372.210938-20.703126-82.878907h-33.070312l21.925781 89.707031c8.488281-4.632812 18.007813-7.054687 27.675781-7.039062 1.410157 0 2.789063.113281 4.171876.210938zm0 0" fill="#aabece"/><path d="m380.265625 429.867188c0 36.523437-29.609375 66.132812-66.132813 66.132812-36.523437 0-66.132812-29.609375-66.132812-66.132812 0-36.523438 29.609375-66.132813 66.132812-66.132813 36.523438 0 66.132813 29.609375 66.132813 66.132813zm0 0" fill="#5a6470"/><g fill="#fff"><path d="m330.664062 429.867188c0 9.128906-7.398437 16.53125-16.53125 16.53125-9.128906 0-16.53125-7.402344-16.53125-16.53125 0-9.132813 7.402344-16.53125 16.53125-16.53125 9.132813 0 16.53125 7.398437 16.53125 16.53125zm0 0"/><path d="m190.132812 314.132812h16.53125v16.53125h-16.53125zm0 0"/><path d="m206.667969 330.667969h16.53125v16.53125h-16.53125zm0 0"/><path d="m223.199219 314.132812h16.535156v16.53125h-16.535156zm0 0"/></g><path d="m115.734375 33.066406c0 18.261719-14.804687 33.066406-33.066406 33.066406s-33.066407-14.804687-33.066407-33.066406c0-18.261718 14.804688-33.066406 33.066407-33.066406s33.066406 14.804688 33.066406 33.066406zm0 0" fill="#e9686a"/><path d="m140.53125 8.265625h33.070312v49.601563h-33.070312zm0 0" fill="#fdbd40"/><path d="m289.332031 16.53125h49.601563v33.070312h-49.601563zm0 0" fill="#55b56a"/><path d="m231.46875 33.066406c0 13.695313-11.105469 24.800782-24.800781 24.800782-13.699219 0-24.800781-11.105469-24.800781-24.800782 0-13.695312 11.101562-24.800781 24.800781-24.800781 13.695312 0 24.800781 11.105469 24.800781 24.800781zm0 0" fill="#55b56a"/><path d="m264.53125 57.867188h-16.53125l-8.265625-49.601563h33.066406zm0 0" fill="#fdbd40"/><path d="m214.933594 132.265625c-2.195313.003906-4.296875-.867187-5.84375-2.421875l-16.535156-16.53125c-3.226563-3.226562-3.230469-8.457031-.003907-11.6875.003907 0 .003907 0 .003907-.003906l16.535156-16.53125c3.246094-3.207032 8.480468-3.175782 11.6875.074218 3.179687 3.21875 3.179687 8.398438 0 11.617188l-10.6875 10.6875 10.6875 10.6875c3.230468 3.230469 3.226562 8.464844 0 11.691406-1.550782 1.546875-3.652344 2.417969-5.84375 2.417969zm0 0" fill="#ed917e"/><path d="m289.332031 132.265625c-2.191406.003906-4.296875-.867187-5.84375-2.421875l-16.535156-16.53125c-3.226563-3.226562-3.226563-8.457031 0-11.6875 0 0 0 0 0-.003906l16.535156-16.53125c3.207031-3.246094 8.441407-3.28125 11.6875-.074219 3.25 3.210937 3.28125 8.441406.074219 11.691406-.023438.023438-.050781.046875-.074219.074219l-10.6875 10.6875 10.6875 10.6875c3.230469 3.230469 3.226563 8.464844 0 11.691406-1.546875 1.546875-3.652343 2.417969-5.84375 2.417969zm0 0" fill="#ed917e"/><path d="m140.53125 132.265625c-2.191406.003906-4.292969-.867187-5.84375-2.421875l-16.53125-16.53125c-3.230469-3.226562-3.230469-8.457031-.003906-11.6875 0 0 0 0 .003906-.003906l16.53125-16.53125c3.25-3.207032 8.484375-3.175782 11.691406.074218 3.175782 3.21875 3.175782 8.398438 0 11.617188l-10.691406 10.6875 10.691406 10.6875c3.226563 3.230469 3.226563 8.464844-.003906 11.691406-1.546875 1.546875-3.648438 2.417969-5.84375 2.417969zm0 0" fill="#ed917e"/><path d="m264.53125 264.53125h-16.53125c-4.566406 0-8.265625-3.699219-8.265625-8.265625s3.699219-8.265625 8.265625-8.265625h16.53125c4.566406 0 8.269531 3.699219 8.269531 8.265625s-3.703125 8.265625-8.269531 8.265625zm0 0" fill="#fff"/></svg>