<svg height="512pt" viewBox="-22 0 511 512" width="512pt" xmlns="http://www.w3.org/2000/svg"><path d="m273.773438 178.125c4.925781-2.15625 10.375-3.347656 16.09375-3.347656 22.253906 0 40.300781 18.046875 40.300781 40.300781s-18.046875 40.300781-40.300781 40.300781c-5.71875 0-11.167969-1.191406-16.09375-3.347656h-216.878907c-4.925781 2.15625-10.375 3.347656-16.09375 3.347656-22.253906 0-40.300781-18.046875-40.300781-40.300781s18.046875-40.300781 40.300781-40.300781c5.71875 0 11.167969 1.191406 16.09375 3.347656" fill="#ce8d77"/><path d="m191.316406 386.753906h15.953125c23.648438 0 42.820313 19.171875 42.820313 42.832032v82.414062h-169.527344v-82.414062c0-23.660157 19.183594-42.832032 42.832031-42.832032h15.957031" fill="#75b2cc"/><path d="m157.730469 386.753906h-34.335938c-23.648437 0-42.832031 19.171875-42.832031 42.832032v82.414062h34.335938v-82.414062c0-23.660157 19.183593-42.832032 42.832031-42.832032zm0 0" fill="#4a9cba"/><path d="m165.332031 410.359375c-14.417969 0-26.109375-11.691406-26.109375-26.109375v-48.652344h52.222656v48.652344c0 14.417969-11.691406 26.109375-26.113281 26.109375zm0 0" fill="#ce8d77"/><path d="m273.769531 144.128906v108.4375c0 59.886719-48.546875 108.4375-108.4375 108.4375-59.886719 0-108.4375-48.550781-108.4375-108.4375v-108.4375" fill="#e5baa8"/><path d="m164.5625 360.996094c-29.640625-.199219-56.445312-12.296875-75.90625-31.753906-19.621094-19.628907-31.757812-46.730469-31.757812-76.679688v-108.4375h48.820312v108.4375c0 29.949219 6.667969 57.050781 17.460938 76.679688 10.621093 19.320312 25.226562 31.378906 41.382812 31.753906zm0 0" fill="#ce8d77"/><path d="m165.332031 309.289062c-11.871093 0-23.039062-4.625-31.433593-13.023437-3.140626-3.140625-3.140626-8.238281 0-11.378906 3.144531-3.140625 8.238281-3.140625 11.382812 0 5.355469 5.355469 12.476562 8.308593 20.050781 8.308593s14.695313-2.953124 20.054688-8.308593c3.140625-3.140625 8.238281-3.144531 11.378906 0 3.144531 3.144531 3.144531 8.238281 0 11.378906-8.394531 8.398437-19.558594 13.023437-31.433594 13.023437zm0 0" fill="#ce8d77"/><path d="m213.347656 242.816406c-4.445312 0-8.046875-3.601562-8.046875-8.046875v-24.492187c0-4.445313 3.601563-8.046875 8.046875-8.046875 4.445313 0 8.046875 3.601562 8.046875 8.046875v24.492187c0 4.445313-3.601562 8.046875-8.046875 8.046875zm0 0" fill="#24465e"/><path d="m117.320312 242.816406c-4.445312 0-8.046874-3.601562-8.046874-8.046875v-24.492187c0-4.445313 3.601562-8.046875 8.046874-8.046875 4.445313 0 8.046876 3.601562 8.046876 8.046875v24.492187c0 4.445313-3.601563 8.046875-8.046876 8.046875zm0 0" fill="#24465e"/><path d="m376.761719 442.546875h-51.503907l-32.246093 69.453125h51.503906zm0 0" fill="#75b2cc"/><path d="m432.554688 423.230469c0 10.667969-8.644532 19.316406-19.3125 19.316406h-87.984376v-8.929687c0-7.734376 2.953126-14.773438 7.792969-20.042969 5.417969-5.933594 13.226563-9.65625 21.898438-9.65625h58.292969c5.332031 0 10.160156 2.15625 13.660156 5.65625 1.191406 1.191406 2.21875 2.53125 3.058594 4 1.652343 2.84375 2.59375 6.140625 2.59375 9.65625zm0 0" fill="#e5baa8"/><path d="m56.898438 202.9375c18.476562 0 33.453124-14.976562 33.453124-33.453125v-52.679687l-33.453124 27.324218z" fill="#24465e"/><path d="m360.664062 144.128906c0 26.148438-9.273437 47.34375-86.894531 47.34375-77.617187 0-140.539062-21.195312-140.539062-47.34375zm0 0" fill="#24465e"/><path d="m317.398438 271.230469h150.078124v132.691406h-150.078124zm0 0" fill="#f4d06b"/><path d="m429.960938 413.574219h-96.910157c5.417969-5.933594 13.226563-9.65625 21.898438-9.65625h58.292969c5.332031 0 10.160156 2.15625 13.660156 5.65625 1.191406 1.191406 2.21875 2.53125 3.058594 4zm0 0" fill="#ce8d77"/><path d="m418.742188 334.628906-26.304688-14.835937-26.304688 14.835937v-63.398437h52.609376zm0 0" fill="#e55c5c"/><path d="m118.316406 0h94.035156c33.921876 0 61.417969 27.5 61.417969 61.421875v82.703125h-216.871093v-82.703125c0-33.921875 27.496093-61.421875 61.417968-61.421875zm0 0" fill="#e6e6e6"/><path d="m273.777344 61.417969v82.703125h-160.546875v-82.703125c0-31.6875 24.003906-57.769531 54.828125-61.0625 2.167968-.238281 4.367187-.355469 6.597656-.355469h37.707031c33.914063 0 61.414063 27.5 61.414063 61.417969zm0 0" fill="#75b2cc"/><path d="m231.375 53.371094v90.75h-16.09375v-90.75c0-27.339844-20.675781-49.960938-47.222656-53.015625 2.167968-.238281 4.367187-.355469 6.597656-.355469h31.664062c15.300782 12.757812 25.054688 31.941406 25.054688 53.371094zm0 0" fill="#4a9cba"/></svg>